<?xml version="1.0" encoding="UTF-8" standalone="no"?>
<!-- Created with Inkscape (http://www.inkscape.org/) -->
<svg
   xmlns:dc="http://purl.org/dc/elements/1.1/"
   xmlns:cc="http://web.resource.org/cc/"
   xmlns:rdf="http://www.w3.org/1999/02/22-rdf-syntax-ns#"
   xmlns:svg="http://www.w3.org/2000/svg"
   xmlns="http://www.w3.org/2000/svg"
   xmlns:sodipodi="http://sodipodi.sourceforge.net/DTD/sodipodi-0.dtd"
   xmlns:inkscape="http://www.inkscape.org/namespaces/inkscape"
   id="svg1923"
   sodipodi:version="0.32"
   inkscape:version="0.44"
   width="144"
   height="379"
   version="1.0"
   sodipodi:docbase="E:\"
   sodipodi:docname="cora_rocket.svg">
  <metadata
     id="metadata1928">
    <rdf:RDF>
      <cc:Work
         rdf:about="">
        <dc:format>image/svg+xml</dc:format>
        <dc:type
           rdf:resource="http://purl.org/dc/dcmitype/StillImage" />
      </cc:Work>
    </rdf:RDF>
  </metadata>
  <defs
     id="defs1926" />
  <sodipodi:namedview
     inkscape:window-height="749"
     inkscape:window-width="1024"
     inkscape:pageshadow="2"
     inkscape:pageopacity="0.0"
     guidetolerance="10.0"
     gridtolerance="10.0"
     objecttolerance="10.0"
     borderopacity="1.0"
     bordercolor="#666666"
     pagecolor="#ffffff"
     id="base"
     showguides="true"
     inkscape:guide-bbox="true"
     inkscape:zoom="1.4142136"
     inkscape:cx="151.62289"
     inkscape:cy="178.85542"
     inkscape:window-x="-4"
     inkscape:window-y="-4"
     inkscape:current-layer="svg1923" />
  <g
     id="g1994"
     transform="translate(-22.83082,-5.341605)">
    <g
       id="g1948">
      <path
         style="fill:none;fill-opacity:0.75;fill-rule:evenodd;stroke:black;stroke-width:1px;stroke-linecap:butt;stroke-linejoin:miter;stroke-opacity:1"
         d="M 65.603797,341.07406 L 65.845877,93.02232 C 65.845877,93.02232 75.190757,68.473856 78.988002,58.202744 C 82.785247,47.931632 81.034855,51.937873 84.405376,43.799299 C 87.713808,35.810645 89.690798,32.139092 91.244147,30.464703 C 92.797496,28.790313 93.927205,29.113087 95.541074,29.113087 C 97.154943,29.113087 98.042571,28.70962 99.374013,30.343662 C 100.70546,31.977705 102.48071,35.649258 105.86984,43.799299 C 109.30846,52.068354 107.42347,47.544064 111.40543,58.105329 C 115.38738,68.666594 125.23628,94.313416 125.23628,94.313416 L 124.59073,341.55823 L 134.27394,356.40583 L 134.11255,366.25043 L 124.59073,366.08904 L 124.50234,368.70576 L 122.72708,368.62507 L 122.73478,371.33412 L 111.357,371.33412 L 111.3493,368.70576 L 101.10123,368.70576 L 101.10893,371.41481 L 88.359357,371.41481 L 88.44005,368.64441 L 78.756833,368.64441 L 78.756833,371.25343 L 67.379053,371.25343 L 67.379053,368.75193 L 65.765183,368.67124 L 65.765184,366.16974 L 55.678498,366.16974 L 55.517111,357.05137 L 65.603797,341.07406 z "
         id="path1932"
         sodipodi:nodetypes="ccsszzzssccccccccccccccccccccccc" />
      <path
         style="fill:none;fill-opacity:0.75;fill-rule:evenodd;stroke:black;stroke-width:1px;stroke-linecap:butt;stroke-linejoin:miter;stroke-opacity:1"
         d="M 78.869341,57.805031 L 111.32517,57.805031"
         id="path1946" />
    </g>
    <path
       id="path1952"
       d="M 65.920643,105.22753 L 125.28285,105.22753"
       style="fill:none;fill-opacity:0.75;fill-rule:evenodd;stroke:black;stroke-width:1px;stroke-linecap:butt;stroke-linejoin:miter;stroke-opacity:1" />
    <path
       id="path1954"
       d="M 65.920643,133.14291 L 124.94652,133.14291"
       style="fill:none;fill-opacity:0.75;fill-rule:evenodd;stroke:black;stroke-width:1px;stroke-linecap:butt;stroke-linejoin:miter;stroke-opacity:1" />
    <path
       id="path1956"
       d="M 97.871975,105.22753 L 98.04014,119.35339 L 110.14801,119.52155 L 109.97985,105.90019 L 97.871975,106.06836"
       style="fill:none;fill-opacity:0.75;fill-rule:evenodd;stroke:black;stroke-width:1px;stroke-linecap:butt;stroke-linejoin:miter;stroke-opacity:1" />
    <path
       id="path1958"
       d="M 80.298746,105.47978 L 80.466906,119.60564 L 92.574776,119.7738 L 92.406616,106.15244 L 80.298746,106.32061"
       style="fill:none;fill-opacity:0.75;fill-rule:evenodd;stroke:black;stroke-width:1px;stroke-linecap:butt;stroke-linejoin:miter;stroke-opacity:1" />
    <path
       id="path1960"
       d="M 66.302772,105.27333 L 66.359106,119.80723 L 70.415296,119.98025 L 70.358962,105.96542 L 66.302772,106.13845"
       style="fill:none;fill-opacity:0.75;fill-rule:evenodd;stroke:black;stroke-width:0.5870958px;stroke-linecap:butt;stroke-linejoin:miter;stroke-opacity:1" />
    <path
       id="path1962"
       d="M 119.86329,105.27333 L 119.91963,119.80723 L 123.97582,119.98025 L 123.91948,105.96542 L 119.86329,106.13845"
       style="fill:none;fill-opacity:0.75;fill-rule:evenodd;stroke:black;stroke-width:0.5870958px;stroke-linecap:butt;stroke-linejoin:miter;stroke-opacity:1" />
    <path
       id="path1964"
       d="M 66.004728,186.45119 L 125.0306,186.45119"
       style="fill:none;fill-opacity:0.75;fill-rule:evenodd;stroke:black;stroke-width:1px;stroke-linecap:butt;stroke-linejoin:miter;stroke-opacity:1" />
    <path
       id="path1966"
       d="M 66.00473,218.73885 L 125.0306,218.73885"
       style="fill:none;fill-opacity:0.75;fill-rule:evenodd;stroke:black;stroke-width:1px;stroke-linecap:butt;stroke-linejoin:miter;stroke-opacity:1" />
    <path
       id="path1986"
       d="M 65.615501,261.99202 L 124.64137,261.99202"
       style="fill:none;fill-opacity:0.75;fill-rule:evenodd;stroke:black;stroke-width:1px;stroke-linecap:butt;stroke-linejoin:miter;stroke-opacity:1" />
    <path
       id="path1988"
       d="M 66.091143,330.00886 L 125.11701,330.00886"
       style="fill:none;fill-opacity:0.75;fill-rule:evenodd;stroke:black;stroke-width:1px;stroke-linecap:butt;stroke-linejoin:miter;stroke-opacity:1" />
    <path
       id="path1990"
       d="M 79.670065,224.65411 L 79.194423,342.61337"
       style="fill:none;fill-opacity:0.75;fill-rule:evenodd;stroke:black;stroke-width:1px;stroke-linecap:butt;stroke-linejoin:miter;stroke-opacity:1" />
    <path
       id="path1992"
       d="M 110.11116,240.58813 L 110.11116,343.56466"
       style="fill:none;fill-opacity:0.75;fill-rule:evenodd;stroke:black;stroke-width:1px;stroke-linecap:butt;stroke-linejoin:miter;stroke-opacity:1" />
  </g>
  <path
     style="fill:none;fill-opacity:0.75;fill-rule:evenodd;stroke:black;stroke-width:1px;stroke-linecap:butt;stroke-linejoin:miter;stroke-opacity:1"
     d="M 42.522843,336.12215 L 48.050237,327.97181"
     id="path2015"
     sodipodi:nodetypes="cc" />
  <path
     style="fill:none;fill-opacity:0.75;fill-rule:evenodd;stroke:black;stroke-width:1px;stroke-linecap:butt;stroke-linejoin:miter;stroke-opacity:1"
     d="M 101.97364,336.52526 L 96.446247,328.37492"
     id="path2019"
     sodipodi:nodetypes="cc" />
  <path
     style="fill:none;fill-opacity:0.75;fill-rule:evenodd;stroke:black;stroke-width:1px;stroke-linecap:butt;stroke-linejoin:miter;stroke-opacity:1"
     d="M 48,328.5 L 47.5,360.8125 L 41.75,360.8125"
     id="path2021"
     sodipodi:nodetypes="ccc" />
  <path
     style="fill:none;fill-opacity:0.75;fill-rule:evenodd;stroke:black;stroke-width:1px;stroke-linecap:butt;stroke-linejoin:miter;stroke-opacity:1"
     d="M 96.625,328.40625 L 97.125,360.71875 L 102.875,360.71875"
     id="path2023"
     sodipodi:nodetypes="ccc" />
  <path
     id="path1889"
     d="M 42.891079,363.23161 L 101.91694,363.23161"
     style="fill:none;fill-opacity:0.75;fill-rule:evenodd;stroke:black;stroke-width:1px;stroke-linecap:butt;stroke-linejoin:miter;stroke-opacity:1" />
</svg>
